<?xml version="1.0" encoding="UTF-8" standalone="no"?>
<svg xmlns="http://www.w3.org/2000/svg" version="1.1" xmlns:xlink="http://www.w3.org/1999/xlink" xmlns:svgjs="http://svgjs.dev/svgjs" width="2000" height="1252" viewBox="0 0 2000 1252"><g transform="matrix(1,0,0,1,-1.2121212121212466,-2.01935483870966)"><svg viewBox="0 0 396 248" data-background-color="#182524" preserveAspectRatio="xMidYMid meet" height="1252" width="2000" xmlns="http://www.w3.org/2000/svg" xmlns:xlink="http://www.w3.org/1999/xlink"><g id="tight-bounds" transform="matrix(1,0,0,1,0.2400000000000091,0.4000000000000057)"><svg viewBox="0 0 395.52 247.2" height="247.2" width="395.52"><g><svg></svg></g><g><svg viewBox="0 0 395.52 247.2" height="247.2" width="395.52"><mask id="765fdf9b-700d-4bbe-af21-0f7241f9a5f4"><rect width="395.52" height="247.2" fill="white"></rect><g transform="matrix(1,0,0,1,0,62.92281649033199)" id="clone"><svg viewBox="0 0 395.52 121.35436701933601" height="121.35436701933601" width="395.52"><g><svg viewBox="0 0 395.52 121.35436701933601" height="121.35436701933601" width="395.52"><g><svg viewBox="0 0 395.52 121.35436701933601" height="121.35436701933601" width="395.52"><g><svg viewBox="0 0 395.52 121.35436701933601" height="121.35436701933601" width="395.52"><g id="SvgjsG1142"><svg viewBox="0 0 395.52 121.35436701933601" height="121.35436701933601" width="395.52" id="SvgjsSvg1141"><g><svg viewBox="0 0 395.52 121.35436701933601" height="121.35436701933601" width="395.52"><g transform="matrix(1,0,0,1,0,0)"><svg width="395.52" viewBox="-0.8500000000000001 -39.45 138.04 43.050000000000004" height="121.35436701933601" data-palette-color="#e2f1e6"><path d="M3.05 0.15L3.05 0.15Q2.55 0.15 2.35-0.2 2.15-0.55 2.15-0.95L2.15-0.95Q2.2-1.8 2.55-1.9 2.9-2 3.4-2L3.4-2Q5-2 5.65-2.58 6.3-3.15 6.48-4.03 6.65-4.9 6.65-5.85L6.65-5.85 6.65-25.7Q6.65-26.65 6.48-27.53 6.3-28.4 5.65-28.98 5-29.55 3.4-29.55L3.4-29.55Q2.9-29.55 2.55-29.65 2.2-29.75 2.15-30.6L2.15-30.6Q2.15-31 2.35-31.35 2.55-31.7 3.05-31.7L3.05-31.7Q4.65-31.65 6.05-31.6 7.45-31.55 8.95-31.55L8.95-31.55Q12-31.55 15.2-31.7L15.2-31.7Q15.7-31.7 15.9-31.35 16.1-31 16.1-30.6L16.1-30.6Q16.05-29.75 15.73-29.65 15.4-29.55 14.85-29.55L14.85-29.55Q13.3-29.55 12.63-28.98 11.95-28.4 11.8-27.53 11.65-26.65 11.6-25.7L11.6-25.7 11.6-16.85 27.3-16.85 27.3-25.7Q27.3-26.65 27.13-27.53 26.95-28.4 26.3-28.98 25.65-29.55 24.05-29.55L24.05-29.55Q23.55-29.55 23.18-29.65 22.8-29.75 22.75-30.6L22.75-30.6Q22.75-31 22.98-31.35 23.2-31.7 23.65-31.7L23.65-31.7Q26.9-31.55 29.9-31.55L29.9-31.55Q31.4-31.55 32.83-31.6 34.25-31.65 35.85-31.7L35.85-31.7Q36.3-31.7 36.52-31.35 36.75-31 36.75-30.6L36.75-30.6Q36.7-29.75 36.35-29.65 36-29.55 35.5-29.55L35.5-29.55Q33.95-29.55 33.25-28.98 32.55-28.4 32.4-27.53 32.25-26.65 32.2-25.7L32.2-25.7 32.2-5.85Q32.25-4.9 32.4-4.03 32.55-3.15 33.25-2.58 33.95-2 35.5-2L35.5-2Q36-2 36.35-1.9 36.7-1.8 36.75-0.95L36.75-0.95Q36.75-0.55 36.52-0.2 36.3 0.15 35.85 0.15L35.85 0.15Q34.25 0.05 32.8 0.03 31.35 0 29.85 0L29.85 0Q26.9 0 23.65 0.15L23.65 0.15Q23.2 0.15 22.98-0.2 22.75-0.55 22.75-0.95L22.75-0.95Q22.8-1.8 23.18-1.9 23.55-2 24.05-2L24.05-2Q25.65-2 26.3-2.58 26.95-3.15 27.13-4.03 27.3-4.9 27.3-5.85L27.3-5.85 27.3-14.7 11.6-14.7 11.6-5.85Q11.65-4.9 11.8-4.03 11.95-3.15 12.63-2.58 13.3-2 14.85-2L14.85-2Q15.4-2 15.73-1.9 16.05-1.8 16.1-0.95L16.1-0.95Q16.1-0.55 15.9-0.2 15.7 0.15 15.2 0.15L15.2 0.15Q12 0 9 0L9 0Q7.5 0 6.08 0.03 4.65 0.05 3.05 0.15ZM45.7 0.6L45.7 0.6Q42.65 0.6 40.82-1.15 39-2.9 39-5.35L39-5.35Q39-7.9 40.32-9.35 41.65-10.8 43.82-11.5 46-12.2 48.57-12.45 51.15-12.7 53.6-12.85L53.6-12.85 53.6-16.8Q53.6-19.15 52.42-20.48 51.25-21.8 48.45-21.8L48.45-21.8Q47.05-21.8 45.82-20.9 44.6-20 44.6-18.3L44.6-18.3Q44.6-17.5 45-16.95 45.4-16.4 45.8-16.1 46.2-15.8 46.2-15.7L46.2-15.7Q46.2-15.5 45.62-14.98 45.05-14.45 44.05-14.45L44.05-14.45Q42.5-14.45 41.65-15.6 40.8-16.75 40.8-18.15L40.8-18.15Q40.8-20.05 41.97-21.15 43.15-22.25 45-22.75 46.85-23.25 48.75-23.25L48.75-23.25Q51-23.25 53.12-22.7 55.25-22.15 56.62-20.6 58-19.05 58-15.95L58-15.95 58-4.3Q58.05-3.8 58.25-3.1 58.45-2.4 59.02-1.88 59.6-1.35 60.6-1.35L60.6-1.35Q60.95-1.35 61.15-1.23 61.35-1.1 61.35-0.55L61.35-0.55Q61.35-0.1 60.85 0.15 60.35 0.4 59.7 0.5 59.05 0.6 58.6 0.6L58.6 0.6Q56.75 0.6 55.3-0.48 53.85-1.55 53.6-3.45L53.6-3.45Q52.5-1.45 50.32-0.43 48.15 0.6 45.7 0.6ZM47.3-2.1L47.3-2.1Q49-2.1 50.42-2.95 51.85-3.8 52.72-5.28 53.6-6.75 53.6-8.55L53.6-8.55 53.6-11.4Q48.45-11.05 46.25-9.75 44.05-8.45 44.05-5.5L44.05-5.5Q44.05-2.1 47.3-2.1ZM64.55 0.15L64.55 0.15Q64.2 0.15 63.97-0.18 63.75-0.5 63.75-0.85L63.75-0.85Q63.85-1.6 64.15-1.68 64.45-1.75 64.95-1.75L64.95-1.75Q66.35-1.75 66.85-2.23 67.35-2.7 67.42-3.5 67.5-4.3 67.5-5.15L67.5-5.15 67.5-16.6Q67.5-17.5 67.42-18.28 67.35-19.05 66.85-19.53 66.35-20 64.95-20L64.95-20Q64.5-20 64.12-20.13 63.75-20.25 63.75-21L63.75-21Q63.75-21.75 64.55-21.9L64.55-21.9Q66.85-22.25 68.07-22.6 69.3-22.95 69.92-23.2 70.55-23.45 71.05-23.5L71.05-23.5Q71.45-23.55 71.72-23.35 72-23.15 72-22.55L72-22.55 72-19.45 72.15-19.45Q73.85-21.1 75.65-22.18 77.45-23.25 78.95-23.25L78.95-23.25Q80.7-23.25 81.62-21.95 82.55-20.65 82.55-19.2L82.55-19.2Q82.55-17.95 81.75-16.78 80.95-15.6 79.35-15.6L79.35-15.6Q78.55-15.6 78.07-15.93 77.6-16.25 77.55-16.4L77.55-16.4Q77.55-16.5 78.02-17 78.5-17.5 78.5-18.25L78.5-18.25Q78.5-19.15 78.02-19.7 77.55-20.25 76.75-20.25L76.75-20.25Q75.9-20.25 74.57-19.4 73.25-18.55 72.05-17.35L72.05-17.35 72.05-5.15Q72.05-4.3 72.12-3.5 72.2-2.7 72.72-2.23 73.25-1.75 74.65-1.75L74.65-1.75Q75.1-1.75 75.42-1.68 75.75-1.6 75.8-0.85L75.8-0.85Q75.8-0.5 75.6-0.18 75.4 0.15 75 0.15L75 0.15Q73.55 0.05 72.32 0.03 71.1 0 69.75 0L69.75 0Q68.4 0 67.2 0.03 66 0.05 64.55 0.15ZM94.24 0.6L94.24 0.6Q90.39 0.6 87.82-0.78 85.24-2.15 85.24-4.75L85.24-4.75Q85.24-6.2 86.12-7.1 86.99-8 88.39-8L88.39-8Q89.29-8 89.87-7.53 90.44-7.05 90.44-6.85L90.44-6.85Q90.44-6.7 89.87-6.18 89.29-5.65 89.29-4.5L89.29-4.5Q89.29-3.1 90.62-2.18 91.94-1.25 94.64-1.25L94.64-1.25Q96.99-1.25 98.32-2.27 99.64-3.3 99.64-5.15L99.64-5.15Q99.64-6.65 98.67-7.48 97.69-8.3 96.17-8.8 94.64-9.3 92.92-9.8 91.19-10.3 89.64-11.05 88.09-11.8 87.12-13.13 86.14-14.45 86.14-16.65L86.14-16.65Q86.14-18.9 87.49-20.35 88.84-21.8 90.94-22.53 93.04-23.25 95.19-23.25L95.19-23.25Q97.04-23.25 98.69-22.73 100.34-22.2 101.42-21.15 102.49-20.1 102.49-18.5L102.49-18.5Q102.49-17.25 101.69-16.25 100.89-15.25 99.49-15.25L99.49-15.25Q98.59-15.25 98.02-15.73 97.44-16.2 97.44-16.4L97.44-16.4Q97.44-16.5 97.82-16.78 98.19-17.05 98.54-17.53 98.89-18 98.89-18.75L98.89-18.75Q98.79-20.2 97.49-20.9 96.19-21.6 94.59-21.6L94.59-21.6Q92.84-21.6 91.34-20.75 89.84-19.9 89.84-18.3L89.84-18.3Q89.84-16.85 90.47-16.05 91.09-15.25 92.47-14.68 93.84-14.1 96.04-13.4L96.04-13.4Q98.24-12.7 99.92-11.95 101.59-11.2 102.52-9.98 103.44-8.75 103.44-6.65L103.44-6.65Q103.44-4.55 102.24-2.9 101.04-1.25 98.97-0.33 96.89 0.6 94.24 0.6ZM107.44 0.15L107.44 0.15Q107.04 0.15 106.84-0.18 106.64-0.5 106.64-0.85L106.64-0.85Q106.69-1.6 107.02-1.68 107.34-1.75 107.79-1.75L107.79-1.75Q109.19-1.75 109.72-2.23 110.24-2.7 110.32-3.5 110.39-4.3 110.39-5.15L110.39-5.15 110.39-29.55Q110.39-30.45 110.32-31.23 110.24-32 109.74-32.48 109.24-32.95 107.84-32.95L107.84-32.95Q107.39-32.95 107.02-33.08 106.64-33.2 106.64-33.95L106.64-33.95Q106.64-34.7 107.44-34.85L107.44-34.85Q109.74-35.2 110.97-35.55 112.19-35.9 112.84-36.18 113.49-36.45 113.99-36.45L113.99-36.45Q114.39-36.45 114.67-36.27 114.94-36.1 114.94-35.5L114.94-35.5 114.94-19.4 115.04-19.4Q116.04-20.35 117.09-21.23 118.14-22.1 119.57-22.68 120.99-23.25 123.09-23.25L123.09-23.25Q126.49-23.25 128.49-21.2 130.49-19.15 130.49-15.8L130.49-15.8 130.49-5.15Q130.49-4.3 130.57-3.5 130.64-2.7 131.17-2.23 131.69-1.75 133.04-1.75L133.04-1.75Q133.54-1.75 133.84-1.68 134.14-1.6 134.19-0.85L134.19-0.85Q134.19-0.5 134.02-0.18 133.84 0.15 133.44 0.15L133.44 0.15Q131.99 0.05 130.74 0.03 129.49 0 128.19 0L128.19 0Q126.84 0 125.64 0.03 124.44 0.05 122.99 0.15L122.99 0.15Q122.59 0.15 122.39-0.18 122.19-0.5 122.19-0.85L122.19-0.85Q122.24-1.6 122.54-1.68 122.84-1.75 123.34-1.75L123.34-1.75Q124.74-1.75 125.27-2.23 125.79-2.7 125.84-3.5 125.89-4.3 125.89-5.15L125.89-5.15 125.89-15.75Q125.89-18.25 124.39-19.38 122.89-20.5 121.14-20.5L121.14-20.5Q119.44-20.5 118.14-19.88 116.84-19.25 116.04-18.45 115.24-17.65 114.94-17.05L114.94-17.05 114.94-5.15Q114.94-4.3 115.02-3.5 115.09-2.7 115.62-2.23 116.14-1.75 117.49-1.75L117.49-1.75Q117.99-1.75 118.29-1.68 118.59-1.6 118.64-0.85L118.64-0.85Q118.64-0.5 118.47-0.18 118.29 0.15 117.89 0.15L117.89 0.15Q116.44 0.05 115.19 0.03 113.94 0 112.64 0L112.64 0Q111.29 0 110.09 0.03 108.89 0.05 107.44 0.15Z" opacity="1" transform="matrix(1,0,0,1,0,0)" fill="black" class="wordmark-text-0" id="SvgjsPath1140" stroke-width="5" stroke="black" stroke-linejoin="round"></path></svg></g></svg></g></svg></g></svg></g></svg></g></svg></g></svg></g></mask><g mask="url(#765fdf9b-700d-4bbe-af21-0f7241f9a5f4)"><g><path d="M70.473 247.2v0c-2.587 0-4.398-0.905-5.433-2.716-1.035-1.811-1.552-3.751-1.552-5.822v0c0.259-4.398 1.294-6.856 3.105-7.373 1.811-0.517 4.01-0.776 6.597-0.776v0c8.279 0 14.1-1.501 17.463-4.502 3.363-2.949 5.511-6.701 6.442-11.254 0.88-4.502 1.319-9.21 1.319-14.125v0-154.064c0-4.916-0.44-9.65-1.319-14.203-0.931-4.502-3.079-8.253-6.442-11.254-3.363-2.949-9.184-4.424-17.463-4.424v0c-2.587 0-4.786-0.259-6.597-0.776-1.811-0.517-2.846-2.975-3.105-7.373v0c0-2.07 0.517-4.01 1.552-5.822 1.035-1.811 2.846-2.716 5.433-2.716v0c8.279 0.259 16.04 0.517 23.284 0.776 7.244 0.259 14.747 0.388 22.508 0.388v0c15.781 0 31.951-0.388 48.509-1.164v0c2.587 0 4.398 0.905 5.433 2.716 1.035 1.811 1.552 3.751 1.552 5.822v0c-0.259 4.398-1.216 6.856-2.871 7.373-1.708 0.517-3.984 0.776-6.83 0.776v0c-8.02 0-13.764 1.475-17.231 4.424-3.518 3.001-5.666 6.752-6.442 11.254-0.776 4.553-1.294 9.288-1.552 14.203v0 68.689h121.854v-68.689c0-4.916-0.44-9.65-1.32-14.203-0.931-4.502-3.079-8.253-6.442-11.254-3.363-2.949-9.184-4.424-17.463-4.424v0c-2.587 0-4.838-0.259-6.752-0.776-1.966-0.517-3.079-2.975-3.337-7.373v0c0-2.07 0.595-4.01 1.785-5.822 1.138-1.811 2.872-2.716 5.2-2.716v0c16.816 0.776 32.986 1.164 48.508 1.164v0c7.761 0 15.342-0.129 22.741-0.388 7.347-0.259 15.161-0.517 23.44-0.776v0c2.328 0 4.062 0.905 5.2 2.716 1.19 1.811 1.785 3.751 1.785 5.822v0c-0.259 4.398-1.294 6.856-3.105 7.373-1.811 0.517-4.01 0.776-6.597 0.776v0c-8.02 0-13.841 1.475-17.463 4.424-3.622 3.001-5.821 6.752-6.597 11.254-0.776 4.553-1.294 9.288-1.552 14.203v0 154.064c0.259 4.916 0.776 9.624 1.552 14.125 0.776 4.553 2.975 8.305 6.597 11.254 3.622 3.001 9.443 4.502 17.463 4.502v0c2.587 0 4.786 0.259 6.597 0.776 1.811 0.517 2.846 2.975 3.105 7.373v0c0 2.07-0.595 4.01-1.785 5.822-1.138 1.811-2.872 2.716-5.2 2.716v0c-8.279-0.517-16.17-0.828-23.673-0.931-7.503-0.155-15.135-0.233-22.896-0.233v0c-15.264 0-31.304 0.388-48.12 1.164v0c-2.328 0-4.062-0.905-5.2-2.716-1.19-1.811-1.785-3.751-1.785-5.822v0c0.259-4.398 1.371-6.856 3.337-7.373 1.914-0.517 4.165-0.776 6.752-0.776v0c8.279 0 14.1-1.501 17.463-4.502 3.363-2.949 5.511-6.701 6.442-11.254 0.88-4.502 1.319-9.21 1.32-14.125v0-68.689h-121.854v68.689c0.259 4.916 0.776 9.624 1.552 14.125 0.776 4.553 2.923 8.305 6.442 11.254 3.467 3.001 9.21 4.502 17.231 4.502v0c2.846 0 5.123 0.259 6.83 0.776 1.656 0.517 2.613 2.975 2.871 7.373v0c0 2.07-0.517 4.01-1.552 5.822-1.035 1.811-2.846 2.716-5.433 2.716v0c-16.558-0.776-32.598-1.164-48.12-1.164v0c-7.761 0-15.316 0.078-22.664 0.233-7.399 0.103-15.238 0.414-23.517 0.931z" fill="#e2f1e6" fill-rule="nonzero" stroke="none" stroke-width="1" stroke-linecap="butt" stroke-linejoin="miter" stroke-miterlimit="10" stroke-dasharray="" stroke-dashoffset="0" font-family="none" font-weight="none" font-size="none" text-anchor="none" style="mix-blend-mode: normal" data-fill-palette-color="tertiary"></path></g></g><g transform="matrix(1,0,0,1,0,62.92281649033199)"><svg viewBox="0 0 395.52 121.35436701933601" height="121.35436701933601" width="395.52"><g><svg viewBox="0 0 395.52 121.35436701933601" height="121.35436701933601" width="395.52"><g><svg viewBox="0 0 395.52 121.35436701933601" height="121.35436701933601" width="395.52"><g><svg viewBox="0 0 395.52 121.35436701933601" height="121.35436701933601" width="395.52"><g id="textblocktransform"><svg viewBox="0 0 395.52 121.35436701933601" height="121.35436701933601" width="395.52" id="textblock"><g><svg viewBox="0 0 395.52 121.35436701933601" height="121.35436701933601" width="395.52"><g transform="matrix(1,0,0,1,0,0)"><svg width="395.52" viewBox="-0.8500000000000001 -39.45 138.04 43.050000000000004" height="121.35436701933601" data-palette-color="#e2f1e6"><path d="M3.05 0.15L3.05 0.15Q2.55 0.15 2.35-0.2 2.15-0.55 2.15-0.95L2.15-0.95Q2.2-1.8 2.55-1.9 2.9-2 3.4-2L3.4-2Q5-2 5.65-2.58 6.3-3.15 6.48-4.03 6.65-4.9 6.65-5.85L6.65-5.85 6.65-25.7Q6.65-26.65 6.48-27.53 6.3-28.4 5.65-28.98 5-29.55 3.4-29.55L3.4-29.55Q2.9-29.55 2.55-29.65 2.2-29.75 2.15-30.6L2.15-30.6Q2.15-31 2.35-31.35 2.55-31.7 3.05-31.7L3.05-31.7Q4.65-31.65 6.05-31.6 7.45-31.55 8.95-31.55L8.95-31.55Q12-31.55 15.2-31.7L15.2-31.7Q15.7-31.7 15.9-31.35 16.1-31 16.1-30.6L16.1-30.6Q16.05-29.75 15.73-29.65 15.4-29.55 14.85-29.55L14.85-29.55Q13.3-29.55 12.63-28.98 11.95-28.4 11.8-27.53 11.65-26.65 11.6-25.7L11.6-25.7 11.6-16.85 27.3-16.85 27.3-25.7Q27.3-26.65 27.13-27.53 26.95-28.4 26.3-28.98 25.65-29.55 24.05-29.55L24.05-29.55Q23.55-29.55 23.18-29.65 22.8-29.75 22.75-30.6L22.75-30.6Q22.75-31 22.98-31.35 23.2-31.7 23.65-31.7L23.65-31.7Q26.9-31.55 29.9-31.55L29.9-31.55Q31.4-31.55 32.83-31.6 34.25-31.65 35.85-31.7L35.85-31.7Q36.3-31.7 36.52-31.35 36.75-31 36.75-30.6L36.75-30.6Q36.7-29.75 36.35-29.65 36-29.55 35.5-29.55L35.5-29.55Q33.95-29.55 33.25-28.98 32.55-28.4 32.4-27.53 32.25-26.65 32.2-25.7L32.2-25.7 32.2-5.85Q32.25-4.9 32.4-4.03 32.55-3.15 33.25-2.58 33.95-2 35.5-2L35.5-2Q36-2 36.35-1.9 36.7-1.8 36.75-0.95L36.75-0.95Q36.75-0.55 36.52-0.2 36.3 0.15 35.85 0.15L35.85 0.15Q34.25 0.05 32.8 0.03 31.35 0 29.85 0L29.85 0Q26.9 0 23.65 0.15L23.65 0.15Q23.2 0.15 22.98-0.2 22.75-0.55 22.75-0.95L22.75-0.95Q22.8-1.8 23.18-1.9 23.55-2 24.05-2L24.05-2Q25.65-2 26.3-2.58 26.95-3.15 27.13-4.03 27.3-4.9 27.3-5.85L27.3-5.85 27.3-14.7 11.6-14.7 11.6-5.85Q11.65-4.9 11.8-4.03 11.95-3.15 12.63-2.58 13.3-2 14.85-2L14.85-2Q15.4-2 15.73-1.9 16.05-1.8 16.1-0.95L16.1-0.95Q16.1-0.55 15.9-0.2 15.7 0.15 15.2 0.15L15.2 0.15Q12 0 9 0L9 0Q7.5 0 6.08 0.03 4.65 0.05 3.05 0.15ZM45.7 0.6L45.7 0.6Q42.65 0.6 40.82-1.15 39-2.9 39-5.35L39-5.35Q39-7.9 40.32-9.35 41.65-10.8 43.82-11.5 46-12.2 48.57-12.45 51.15-12.7 53.6-12.85L53.6-12.85 53.6-16.8Q53.6-19.15 52.42-20.48 51.25-21.8 48.45-21.8L48.45-21.8Q47.05-21.8 45.82-20.9 44.6-20 44.6-18.3L44.6-18.3Q44.6-17.5 45-16.95 45.4-16.4 45.8-16.1 46.2-15.8 46.2-15.7L46.2-15.7Q46.2-15.5 45.62-14.98 45.05-14.45 44.05-14.45L44.05-14.45Q42.5-14.45 41.65-15.6 40.8-16.75 40.8-18.15L40.8-18.15Q40.8-20.05 41.97-21.15 43.15-22.25 45-22.75 46.85-23.25 48.75-23.25L48.75-23.25Q51-23.25 53.12-22.7 55.25-22.15 56.62-20.6 58-19.05 58-15.95L58-15.95 58-4.3Q58.05-3.8 58.25-3.1 58.45-2.4 59.02-1.88 59.6-1.35 60.6-1.35L60.6-1.35Q60.95-1.35 61.15-1.23 61.35-1.1 61.35-0.55L61.35-0.55Q61.35-0.1 60.85 0.15 60.35 0.4 59.7 0.5 59.05 0.6 58.6 0.6L58.6 0.6Q56.75 0.6 55.3-0.48 53.85-1.55 53.6-3.45L53.6-3.45Q52.5-1.45 50.32-0.43 48.15 0.6 45.7 0.6ZM47.3-2.1L47.3-2.1Q49-2.1 50.42-2.95 51.85-3.8 52.72-5.28 53.6-6.75 53.6-8.55L53.6-8.55 53.6-11.4Q48.45-11.05 46.25-9.75 44.05-8.45 44.05-5.5L44.05-5.5Q44.05-2.1 47.3-2.1ZM64.55 0.15L64.55 0.15Q64.2 0.15 63.97-0.18 63.75-0.5 63.75-0.85L63.75-0.85Q63.85-1.6 64.15-1.68 64.45-1.75 64.95-1.75L64.95-1.75Q66.35-1.75 66.85-2.23 67.35-2.7 67.42-3.5 67.5-4.3 67.5-5.15L67.5-5.15 67.5-16.6Q67.5-17.5 67.42-18.28 67.35-19.05 66.85-19.53 66.35-20 64.95-20L64.95-20Q64.5-20 64.12-20.13 63.75-20.25 63.75-21L63.75-21Q63.75-21.75 64.55-21.9L64.55-21.9Q66.85-22.25 68.07-22.6 69.3-22.95 69.92-23.2 70.55-23.45 71.05-23.5L71.05-23.5Q71.45-23.55 71.72-23.35 72-23.15 72-22.55L72-22.55 72-19.45 72.15-19.45Q73.85-21.1 75.65-22.18 77.45-23.25 78.95-23.25L78.95-23.25Q80.7-23.25 81.62-21.95 82.55-20.65 82.55-19.2L82.55-19.2Q82.55-17.95 81.75-16.78 80.95-15.6 79.35-15.6L79.35-15.6Q78.55-15.6 78.07-15.93 77.6-16.25 77.55-16.4L77.55-16.4Q77.55-16.5 78.02-17 78.5-17.5 78.5-18.25L78.5-18.25Q78.5-19.15 78.02-19.7 77.55-20.25 76.75-20.25L76.75-20.25Q75.9-20.25 74.57-19.4 73.25-18.55 72.05-17.35L72.05-17.35 72.05-5.15Q72.05-4.3 72.12-3.5 72.2-2.7 72.72-2.23 73.25-1.75 74.65-1.75L74.65-1.75Q75.1-1.75 75.42-1.68 75.75-1.6 75.8-0.85L75.8-0.85Q75.8-0.5 75.6-0.18 75.4 0.15 75 0.15L75 0.15Q73.55 0.05 72.32 0.03 71.1 0 69.75 0L69.75 0Q68.4 0 67.2 0.03 66 0.05 64.55 0.15ZM94.24 0.6L94.24 0.6Q90.39 0.6 87.82-0.78 85.24-2.15 85.24-4.75L85.24-4.75Q85.24-6.2 86.12-7.1 86.99-8 88.39-8L88.39-8Q89.29-8 89.87-7.53 90.44-7.05 90.44-6.85L90.44-6.85Q90.44-6.7 89.87-6.18 89.29-5.65 89.29-4.5L89.29-4.5Q89.29-3.1 90.62-2.18 91.94-1.25 94.64-1.25L94.64-1.25Q96.99-1.25 98.32-2.27 99.64-3.3 99.64-5.15L99.64-5.15Q99.64-6.65 98.67-7.48 97.69-8.3 96.17-8.8 94.64-9.3 92.92-9.8 91.19-10.3 89.64-11.05 88.09-11.8 87.12-13.13 86.14-14.45 86.14-16.65L86.14-16.65Q86.14-18.9 87.49-20.35 88.84-21.8 90.94-22.53 93.04-23.25 95.19-23.25L95.19-23.25Q97.04-23.25 98.69-22.73 100.34-22.2 101.42-21.15 102.49-20.1 102.49-18.5L102.49-18.5Q102.49-17.25 101.69-16.25 100.89-15.25 99.49-15.25L99.49-15.25Q98.59-15.25 98.02-15.73 97.44-16.2 97.44-16.4L97.44-16.4Q97.44-16.5 97.82-16.78 98.19-17.05 98.54-17.53 98.89-18 98.89-18.75L98.89-18.75Q98.79-20.2 97.49-20.9 96.19-21.6 94.59-21.6L94.59-21.6Q92.84-21.6 91.34-20.75 89.84-19.9 89.84-18.3L89.84-18.3Q89.84-16.85 90.47-16.05 91.09-15.25 92.47-14.68 93.84-14.1 96.04-13.4L96.04-13.4Q98.24-12.7 99.92-11.95 101.59-11.2 102.52-9.98 103.44-8.75 103.44-6.65L103.44-6.65Q103.44-4.55 102.24-2.9 101.04-1.25 98.97-0.33 96.89 0.6 94.24 0.6ZM107.44 0.15L107.44 0.15Q107.04 0.15 106.84-0.18 106.64-0.5 106.64-0.85L106.64-0.85Q106.69-1.6 107.02-1.68 107.34-1.75 107.79-1.75L107.79-1.75Q109.19-1.75 109.72-2.23 110.24-2.7 110.32-3.5 110.39-4.3 110.39-5.15L110.39-5.15 110.39-29.55Q110.39-30.45 110.32-31.23 110.24-32 109.74-32.48 109.24-32.95 107.84-32.95L107.84-32.95Q107.39-32.95 107.02-33.08 106.64-33.2 106.64-33.95L106.64-33.95Q106.64-34.7 107.44-34.85L107.44-34.85Q109.74-35.2 110.97-35.55 112.19-35.9 112.84-36.18 113.49-36.45 113.99-36.45L113.99-36.45Q114.39-36.45 114.67-36.27 114.94-36.1 114.94-35.5L114.94-35.5 114.94-19.4 115.04-19.4Q116.04-20.35 117.09-21.23 118.14-22.1 119.57-22.68 120.99-23.25 123.09-23.25L123.09-23.25Q126.49-23.25 128.49-21.2 130.49-19.15 130.49-15.8L130.49-15.8 130.49-5.15Q130.49-4.3 130.57-3.5 130.64-2.7 131.17-2.23 131.69-1.75 133.04-1.75L133.04-1.75Q133.54-1.75 133.84-1.68 134.14-1.6 134.19-0.85L134.19-0.85Q134.19-0.5 134.02-0.18 133.84 0.15 133.44 0.15L133.44 0.15Q131.99 0.05 130.74 0.03 129.49 0 128.19 0L128.19 0Q126.84 0 125.64 0.03 124.44 0.05 122.99 0.15L122.99 0.15Q122.59 0.15 122.39-0.18 122.19-0.5 122.19-0.85L122.19-0.85Q122.24-1.6 122.54-1.68 122.84-1.75 123.34-1.75L123.34-1.75Q124.74-1.75 125.27-2.23 125.79-2.7 125.84-3.5 125.89-4.3 125.89-5.15L125.89-5.15 125.89-15.75Q125.89-18.25 124.39-19.38 122.89-20.5 121.14-20.5L121.14-20.5Q119.44-20.5 118.14-19.88 116.84-19.25 116.04-18.45 115.24-17.65 114.94-17.05L114.94-17.05 114.94-5.15Q114.94-4.3 115.02-3.5 115.09-2.7 115.62-2.23 116.14-1.75 117.49-1.75L117.49-1.75Q117.99-1.75 118.29-1.68 118.59-1.6 118.64-0.85L118.64-0.85Q118.64-0.5 118.47-0.18 118.29 0.15 117.89 0.15L117.89 0.15Q116.44 0.05 115.19 0.03 113.94 0 112.64 0L112.64 0Q111.29 0 110.09 0.03 108.89 0.05 107.44 0.15Z" opacity="1" transform="matrix(1,0,0,1,0,0)" fill="#e2f1e6" class="wordmark-text-0" data-fill-palette-color="primary" id="text-0"></path></svg></g></svg></g></svg></g></svg></g></svg></g></svg></g></svg></g></svg></g><defs></defs></svg><rect width="395.52" height="247.2" fill="none" stroke="none" visibility="hidden"></rect></g></svg></g></svg>